<svg width="40" height="40" viewBox="0 0 40 40" fill="none" xmlns="http://www.w3.org/2000/svg">
<circle cx="20" cy="20" r="20" fill="white"/>
<g clip-path="url(#clip0_248_212)">
<path d="M20 11C15.0375 11 11 15.0375 11 20C11 24.9625 15.0375 29 20 29C21.5826 29 23.1388 28.5836 24.5011 27.7954L23.375 25.8475C22.3544 26.438 21.1871 26.75 20 26.75C16.2778 26.75 13.25 23.7222 13.25 20C13.25 16.2778 16.2778 13.25 20 13.25C23.7222 13.25 26.75 16.2778 26.75 20V20.98C26.75 21.7161 26.2771 22.25 25.625 22.25C25.0048 22.25 24.5 21.7452 24.5 21.125V16.625H22.9448C22.1534 15.9336 21.1309 15.5 20 15.5C17.5187 15.5 15.5 17.5187 15.5 20C15.5 22.4813 17.5187 24.5 20 24.5C21.1816 24.5 22.2499 24.0328 23.0537 23.2852C23.6732 24.0215 24.5896 24.5 25.625 24.5C27.5174 24.5 29 22.9537 29 20.98V20C29 15.0375 24.9625 11 20 11ZM20 22.25C18.7591 22.25 17.75 21.2409 17.75 20C17.75 18.7591 18.7591 17.75 20 17.75C21.2409 17.75 22.25 18.7591 22.25 20C22.25 21.2409 21.2409 22.25 20 22.25Z" fill="#F93F3F"/>
</g>
<defs>
<clipPath id="clip0_248_212">
<rect width="18" height="18" fill="white" transform="translate(11 11)"/>
</clipPath>
</defs>
</svg>
