<svg width="40" height="40" viewBox="0 0 40 40" fill="none" xmlns="http://www.w3.org/2000/svg">
<circle cx="20" cy="20" r="20" fill="#F93F3F"/>
<path fill-rule="evenodd" clip-rule="evenodd" d="M27.7078 26.0735C27.6016 26.1794 27.4735 26.3149 27.3376 26.4581C26.9986 26.8179 26.5751 27.2652 26.3097 27.4465C24.9131 28.4008 23.0447 27.9442 21.7231 27.3936C19.9797 26.6672 18.0816 25.3282 16.3774 23.6237C14.6715 21.9191 13.3327 20.0204 12.6063 18.278C12.0563 16.9561 11.5987 15.0874 12.5531 13.6905C12.7344 13.4249 13.1827 13.002 13.542 12.6624C13.6857 12.5269 13.8201 12.399 13.9264 12.2931C14.115 12.1054 14.3703 12 14.6364 12C14.9025 12 15.1578 12.1054 15.3464 12.2931L17.916 14.8619C18.1036 15.0506 18.2089 15.3058 18.2089 15.5718C18.2089 15.8378 18.1036 16.093 17.916 16.2817L17.216 16.9802C16.9822 17.2123 16.8296 17.5137 16.7809 17.8394C16.7322 18.1652 16.79 18.498 16.9457 18.7883C17.9085 20.6055 19.3949 22.0917 21.2123 23.0542C21.5025 23.2098 21.8353 23.2675 22.1609 23.2187C22.4866 23.17 22.7878 23.0173 23.0197 22.7834L23.718 22.0848C23.9066 21.8971 24.1619 21.7917 24.428 21.7917C24.6941 21.7917 24.9494 21.8971 25.138 22.0848L27.7078 24.6541C27.8954 24.8427 28.0007 25.0978 28.0007 25.3638C28.0007 25.6298 27.8954 25.885 27.7078 26.0735Z" fill="white"/>
</svg>
