<svg width="40" height="40" viewBox="0 0 40 40" fill="none" xmlns="http://www.w3.org/2000/svg">
<circle cx="20" cy="20" r="20" fill="#4AD75C"/>
<g clip-path="url(#clip0_248_222)">
<path fill-rule="evenodd" clip-rule="evenodd" d="M27.2957 12.6741C25.3661 10.7422 22.7999 9.67789 20.0661 9.67676C14.4327 9.67676 9.848 14.2614 9.84574 19.8962C9.84498 21.6975 10.3155 23.4559 11.21 25.0058L9.76001 30.3018L15.178 28.8805C16.6708 29.6949 18.3515 30.124 20.0619 30.1245H20.0662C25.6989 30.1245 30.2842 25.5395 30.2863 19.9044C30.2874 17.1735 29.2254 14.6058 27.2957 12.6741ZM20.0661 28.3985H20.0626C18.5383 28.3979 17.0435 27.9882 15.739 27.2144L15.429 27.0303L12.2139 27.8737L13.072 24.739L12.87 24.4176C12.0196 23.0651 11.5706 21.5019 11.5714 19.8969C11.5731 15.2133 15.3839 11.4029 20.0695 11.4029C22.3384 11.4036 24.4713 12.2884 26.0751 13.894C27.6789 15.4997 28.5616 17.6339 28.5608 19.9038C28.5588 24.5877 24.7483 28.3985 20.0661 28.3985ZM24.7256 22.0364C24.4703 21.9085 23.2147 21.2909 22.9806 21.2056C22.7467 21.1203 22.5762 21.0779 22.4062 21.3335C22.2358 21.589 21.7465 22.1643 21.5975 22.3346C21.4484 22.5051 21.2996 22.5265 21.0442 22.3986C20.7888 22.2708 19.966 22.001 18.9905 21.131C18.2314 20.4539 17.719 19.6176 17.5699 19.3621C17.4211 19.1063 17.5687 18.9814 17.682 18.8409C17.9584 18.4976 18.2352 18.1377 18.3203 17.9674C18.4055 17.797 18.3629 17.6478 18.2989 17.52C18.2352 17.3923 17.7245 16.1353 17.5118 15.6238C17.3043 15.1261 17.0939 15.1933 16.9371 15.1855C16.7883 15.1781 16.618 15.1765 16.4477 15.1765C16.2775 15.1765 16.0008 15.2404 15.7666 15.4962C15.5326 15.7518 14.873 16.3696 14.873 17.6265C14.873 18.8835 15.788 20.0978 15.9157 20.2682C16.0433 20.4387 17.7164 23.0181 20.2781 24.1241C20.8874 24.3874 21.363 24.5444 21.7339 24.6621C22.3457 24.8565 22.9023 24.829 23.3424 24.7633C23.8331 24.6899 24.8531 24.1455 25.0661 23.549C25.2789 22.9525 25.2789 22.4412 25.2149 22.3346C25.1512 22.2281 24.9809 22.1643 24.7256 22.0364Z" fill="white"/>
</g>
<defs>
<clipPath id="clip0_248_222">
<rect width="22" height="22" fill="white" transform="translate(9 9)"/>
</clipPath>
</defs>
</svg>
