<svg width="114" height="36" viewBox="0 0 114 36" fill="none" xmlns="http://www.w3.org/2000/svg">
<path d="M11.3643 13.4307H20.6953V25.9746C19.3851 26.4076 18.0293 26.7437 16.6279 26.9829C15.2266 27.2222 13.6543 27.3418 11.9111 27.3418C9.37044 27.3418 7.21712 26.8405 5.45117 25.8379C3.69661 24.8239 2.36361 23.3599 1.45215 21.4458C0.54069 19.5203 0.0849609 17.2018 0.0849609 14.4902C0.0849609 11.8812 0.59196 9.61963 1.60596 7.70557C2.61995 5.78011 4.09538 4.29329 6.03223 3.24512C7.96908 2.18555 10.3161 1.65576 13.0732 1.65576C14.429 1.65576 15.7393 1.79248 17.0039 2.06592C18.2799 2.32796 19.4478 2.69255 20.5073 3.15967L19.0718 6.54346C18.2287 6.14469 17.283 5.80859 16.2349 5.53516C15.1867 5.26172 14.0986 5.125 12.9707 5.125C11.182 5.125 9.63818 5.51237 8.33936 6.28711C7.05192 7.06185 6.06071 8.1556 5.36572 9.56836C4.67074 10.9697 4.32324 12.6274 4.32324 14.5415C4.32324 16.3986 4.60238 18.0278 5.16064 19.4292C5.71891 20.8306 6.59049 21.9243 7.77539 22.7104C8.97168 23.4852 10.5155 23.8726 12.4067 23.8726C13.3524 23.8726 14.1556 23.8213 14.8164 23.7188C15.4772 23.6162 16.0868 23.5023 16.645 23.377V16.9341H11.3643V13.4307ZM74.3916 35.4082C71.8281 35.4082 69.8628 34.9468 68.4956 34.0239C67.1284 33.1011 66.4448 31.8079 66.4448 30.1445C66.4448 28.9824 66.8094 27.9969 67.5386 27.188C68.2677 26.3905 69.3102 25.8379 70.666 25.5303C70.1533 25.3024 69.709 24.9492 69.333 24.4707C68.9684 23.9808 68.7861 23.4396 68.7861 22.8472C68.7861 22.1408 68.9855 21.5369 69.3843 21.0356C69.783 20.5343 70.3812 20.0501 71.1787 19.583C70.1875 19.1615 69.39 18.4779 68.7861 17.5322C68.1937 16.5752 67.8975 15.453 67.8975 14.1655C67.8975 12.7983 68.188 11.6362 68.769 10.6792C69.3501 9.71077 70.1989 8.97591 71.3154 8.47461C72.432 7.96191 73.7821 7.70557 75.3657 7.70557C75.7075 7.70557 76.0778 7.72835 76.4766 7.77393C76.8867 7.80811 77.2627 7.85368 77.6045 7.91064C77.9577 7.95622 78.2254 8.00749 78.4077 8.06445H84.9531V10.3032L81.7402 10.9014C82.0479 11.3343 82.2928 11.8299 82.4751 12.3882C82.6574 12.9351 82.7485 13.5332 82.7485 14.1826C82.7485 16.1423 82.0706 17.686 80.7148 18.814C79.3704 19.9305 77.5133 20.4888 75.1436 20.4888C74.5739 20.466 74.0213 20.4204 73.4858 20.3521C73.0757 20.6027 72.7624 20.8818 72.5459 21.1895C72.3294 21.4857 72.2212 21.8218 72.2212 22.1978C72.2212 22.5054 72.3294 22.756 72.5459 22.9497C72.7624 23.132 73.0814 23.2687 73.5029 23.3599C73.9359 23.451 74.46 23.4966 75.0752 23.4966H78.3394C80.4129 23.4966 81.9966 23.9352 83.0903 24.8125C84.1841 25.6898 84.731 26.9772 84.731 28.6748C84.731 30.8281 83.8423 32.4858 82.0649 33.6479C80.2876 34.8215 77.7298 35.4082 74.3916 35.4082ZM74.5454 32.5884C75.9468 32.5884 77.126 32.4517 78.083 32.1782C79.04 31.9048 79.7635 31.5117 80.2534 30.999C80.7433 30.4977 80.9883 29.8996 80.9883 29.2046C80.9883 28.5894 80.8345 28.1165 80.5269 27.7861C80.2192 27.4557 79.7578 27.2279 79.1426 27.1025C78.5273 26.9772 77.764 26.9146 76.8525 26.9146H73.8789C73.1383 26.9146 72.4832 27.0285 71.9136 27.2563C71.3439 27.4956 70.8996 27.8374 70.5806 28.2817C70.2729 28.7261 70.1191 29.2616 70.1191 29.8882C70.1191 30.7541 70.5008 31.4206 71.2642 31.8877C72.0389 32.3548 73.1326 32.5884 74.5454 32.5884ZM75.3315 17.8569C76.505 17.8569 77.3766 17.5379 77.9463 16.8999C78.516 16.2505 78.8008 15.339 78.8008 14.1655C78.8008 12.8895 78.5046 11.9325 77.9121 11.2944C77.3311 10.6564 76.4652 10.3374 75.3145 10.3374C74.1865 10.3374 73.3263 10.6621 72.7339 11.3115C72.1528 11.9609 71.8623 12.9237 71.8623 14.1997C71.8623 15.3504 72.1528 16.2505 72.7339 16.8999C73.3263 17.5379 74.1922 17.8569 75.3315 17.8569Z" fill="#4984EC"/>
<path d="M43.0146 17.498C43.0146 19.0703 42.8096 20.466 42.3994 21.6851C41.9893 22.9041 41.3911 23.9352 40.605 24.7783C39.8188 25.61 38.8732 26.248 37.7681 26.6924C36.6629 27.1253 35.4154 27.3418 34.0254 27.3418C32.7266 27.3418 31.536 27.1253 30.4536 26.6924C29.3713 26.248 28.4313 25.61 27.6338 24.7783C26.8477 23.9352 26.2381 22.9041 25.8052 21.6851C25.3722 20.466 25.1558 19.0703 25.1558 17.498C25.1558 15.4131 25.5146 13.6471 26.2324 12.2002C26.9616 10.7419 27.9984 9.63102 29.3428 8.86768C30.6872 8.10433 32.2879 7.72266 34.145 7.72266C35.8882 7.72266 37.4263 8.10433 38.7593 8.86768C40.0923 9.63102 41.1348 10.7419 41.8867 12.2002C42.6387 13.6585 43.0146 15.4245 43.0146 17.498ZM29.2915 17.498C29.2915 18.8766 29.4567 20.0558 29.7871 21.0356C30.1289 22.0155 30.653 22.7674 31.3594 23.2915C32.0658 23.8042 32.9772 24.0605 34.0938 24.0605C35.2103 24.0605 36.1217 23.8042 36.8281 23.2915C37.5345 22.7674 38.0529 22.0155 38.3833 21.0356C38.7137 20.0558 38.8789 18.8766 38.8789 17.498C38.8789 16.1195 38.7137 14.9517 38.3833 13.9946C38.0529 13.0262 37.5345 12.2913 36.8281 11.79C36.1217 11.2773 35.2046 11.021 34.0767 11.021C32.4132 11.021 31.1999 11.5793 30.4365 12.6958C29.6732 13.8123 29.2915 15.4131 29.2915 17.498ZM105.717 7.72266C107.403 7.72266 108.85 8.07015 110.058 8.76514C111.266 9.46012 112.194 10.4456 112.844 11.7217C113.493 12.9977 113.818 14.5244 113.818 16.3018V18.4551H101.188C101.234 20.2894 101.724 21.7021 102.658 22.6934C103.604 23.6846 104.925 24.1802 106.623 24.1802C107.831 24.1802 108.913 24.0662 109.87 23.8384C110.839 23.5991 111.835 23.2516 112.861 22.7959V26.0601C111.915 26.5044 110.952 26.8291 109.973 27.0342C108.993 27.2393 107.819 27.3418 106.452 27.3418C104.595 27.3418 102.96 26.9829 101.547 26.2651C100.146 25.536 99.0465 24.4536 98.249 23.0181C97.4629 21.5825 97.0698 19.7995 97.0698 17.6689C97.0698 15.5498 97.4287 13.7497 98.1465 12.2686C98.8643 10.7874 99.8726 9.65951 101.171 8.88477C102.47 8.11003 103.986 7.72266 105.717 7.72266ZM105.717 10.7476C104.453 10.7476 103.427 11.1577 102.641 11.978C101.866 12.7983 101.411 14.0003 101.274 15.584H109.887C109.876 14.6383 109.716 13.8009 109.409 13.0718C109.112 12.3426 108.657 11.7729 108.042 11.3628C107.438 10.9526 106.663 10.7476 105.717 10.7476Z" fill="#DB3038"/>
<path d="M64.377 17.498C64.377 19.0703 64.1719 20.466 63.7617 21.6851C63.3516 22.9041 62.7534 23.9352 61.9673 24.7783C61.1812 25.61 60.2355 26.248 59.1304 26.6924C58.0252 27.1253 56.7777 27.3418 55.3877 27.3418C54.0889 27.3418 52.8983 27.1253 51.8159 26.6924C50.7336 26.248 49.7936 25.61 48.9961 24.7783C48.21 23.9352 47.6004 22.9041 47.1675 21.6851C46.7345 20.466 46.5181 19.0703 46.5181 17.498C46.5181 15.4131 46.877 13.6471 47.5947 12.2002C48.3239 10.7419 49.3607 9.63102 50.7051 8.86768C52.0495 8.10433 53.6502 7.72266 55.5073 7.72266C57.2505 7.72266 58.7886 8.10433 60.1216 8.86768C61.4546 9.63102 62.4971 10.7419 63.249 12.2002C64.001 13.6585 64.377 15.4245 64.377 17.498ZM50.6538 17.498C50.6538 18.8766 50.819 20.0558 51.1494 21.0356C51.4912 22.0155 52.0153 22.7674 52.7217 23.2915C53.4281 23.8042 54.3395 24.0605 55.4561 24.0605C56.5726 24.0605 57.484 23.8042 58.1904 23.2915C58.8968 22.7674 59.4152 22.0155 59.7456 21.0356C60.076 20.0558 60.2412 18.8766 60.2412 17.498C60.2412 16.1195 60.076 14.9517 59.7456 13.9946C59.4152 13.0262 58.8968 12.2913 58.1904 11.79C57.484 11.2773 56.5669 11.021 55.439 11.021C53.7756 11.021 52.5622 11.5793 51.7988 12.6958C51.0355 13.8123 50.6538 15.4131 50.6538 17.498Z" fill="#F4C20B"/>
<path d="M92.4385 27H88.4053V0.408203H92.4385V27Z" fill="#3BBA53"/>
</svg>
