<svg width="129" height="28" viewBox="0 0 129 28" fill="none" xmlns="http://www.w3.org/2000/svg">
<path d="M10.9204 12.3027L16.1328 2.01465H21.8408L13.5522 17.2759V27H8.28857V17.4468L0 2.01465H5.74219L10.9204 12.3027Z" fill="#FF0000"/>
<path d="M32.4023 7.50049C34.9658 7.50049 36.9312 8.05876 38.2983 9.17529C39.6655 10.2918 40.3491 11.9894 40.3491 14.2681V27H36.709L35.7007 24.4023H35.564C35.0171 25.0859 34.4588 25.6442 33.8892 26.0771C33.3195 26.5101 32.6644 26.8291 31.9238 27.0342C31.1833 27.2393 30.2832 27.3418 29.2236 27.3418C28.0957 27.3418 27.0817 27.1253 26.1816 26.6924C25.293 26.2594 24.5923 25.5986 24.0796 24.71C23.5669 23.8099 23.3105 22.6706 23.3105 21.292C23.3105 19.264 24.0226 17.7715 25.4468 16.8145C26.8709 15.846 29.0072 15.3105 31.8555 15.208L35.1709 15.1055V14.2681C35.1709 13.2655 34.9089 12.5306 34.3848 12.0635C33.8607 11.5964 33.1315 11.3628 32.1973 11.3628C31.2744 11.3628 30.3687 11.4938 29.48 11.7559C28.5913 12.0179 27.7026 12.3483 26.814 12.7471L25.0879 9.22656C26.1019 8.69108 27.2355 8.26953 28.4888 7.96191C29.7534 7.6543 31.0579 7.50049 32.4023 7.50049ZM35.1709 18.1475L33.1543 18.2158C31.4681 18.2614 30.2946 18.5633 29.6338 19.1216C28.9844 19.6799 28.6597 20.4147 28.6597 21.3262C28.6597 22.1237 28.8932 22.6934 29.3604 23.0352C29.8275 23.3656 30.437 23.5308 31.189 23.5308C32.3055 23.5308 33.2454 23.2004 34.0088 22.5396C34.7835 21.8787 35.1709 20.9388 35.1709 19.7197V18.1475ZM56.5845 7.53467C58.6239 7.53467 60.2645 8.09294 61.5063 9.20947C62.7482 10.3146 63.3691 12.092 63.3691 14.5415V27H58.1567V15.8403C58.1567 14.4731 57.9061 13.4421 57.4048 12.7471C56.9149 12.0521 56.1401 11.7046 55.0806 11.7046C53.4855 11.7046 52.3975 12.2458 51.8164 13.3281C51.2354 14.4105 50.9448 15.9714 50.9448 18.0107V27H45.7324V7.89355H49.7144L50.415 10.3374H50.7056C51.1157 9.6766 51.6227 9.14111 52.2266 8.73096C52.8418 8.3208 53.5197 8.01888 54.2603 7.8252C55.0122 7.63151 55.7869 7.53467 56.5845 7.53467ZM74.7852 27.3418C72.6546 27.3418 70.9172 26.5101 69.5728 24.8467C68.2397 23.1719 67.5732 20.7166 67.5732 17.481C67.5732 14.2111 68.2511 11.7388 69.6069 10.064C70.9627 8.37777 72.7344 7.53467 74.9219 7.53467C75.8333 7.53467 76.6366 7.65999 77.3315 7.91064C78.0265 8.1613 78.6247 8.4974 79.126 8.91895C79.6387 9.34049 80.0716 9.81331 80.4248 10.3374H80.5957C80.5273 9.97282 80.4419 9.43734 80.3394 8.73096C80.2482 8.01318 80.2026 7.27832 80.2026 6.52637V0.408203H85.4321V27H81.4331L80.4248 24.522H80.2026C79.8722 25.0461 79.4564 25.5246 78.9551 25.9575C78.4652 26.3791 77.8784 26.7152 77.1948 26.9658C76.5112 27.2165 75.708 27.3418 74.7852 27.3418ZM76.6138 23.189C78.0379 23.189 79.0405 22.7674 79.6216 21.9243C80.214 21.0698 80.5273 19.7881 80.5615 18.0791V17.5151C80.5615 15.658 80.2767 14.2396 79.707 13.2598C79.1374 12.2686 78.0778 11.7729 76.5283 11.7729C75.3776 11.7729 74.4775 12.2686 73.8281 13.2598C73.1787 14.251 72.854 15.6808 72.854 17.5493C72.854 19.4178 73.1787 20.8249 73.8281 21.7705C74.4889 22.7161 75.4175 23.189 76.6138 23.189ZM98.7622 7.53467C100.528 7.53467 102.049 7.87646 103.325 8.56006C104.601 9.23226 105.587 10.2121 106.282 11.4995C106.977 12.7869 107.324 14.3592 107.324 16.2163V18.7456H95.0024C95.0594 20.2153 95.498 21.3717 96.3184 22.2148C97.1501 23.0465 98.3008 23.4624 99.7705 23.4624C100.99 23.4624 102.106 23.3371 103.12 23.0864C104.134 22.8358 105.177 22.4598 106.248 21.9585V25.9917C105.302 26.4588 104.311 26.8006 103.274 27.0171C102.249 27.2336 101.001 27.3418 99.5312 27.3418C97.6172 27.3418 95.9196 26.9886 94.4385 26.2822C92.9688 25.5758 91.8123 24.4992 90.9692 23.0522C90.1375 21.6053 89.7217 19.7824 89.7217 17.5835C89.7217 15.3504 90.0977 13.4933 90.8496 12.0122C91.613 10.5197 92.6725 9.40316 94.0283 8.6626C95.3841 7.91064 96.9621 7.53467 98.7622 7.53467ZM98.7964 11.2432C97.7824 11.2432 96.9393 11.5679 96.2671 12.2173C95.6063 12.8667 95.2246 13.8864 95.1221 15.2764H102.437C102.425 14.5016 102.283 13.8123 102.009 13.2085C101.747 12.6047 101.348 12.1261 100.813 11.7729C100.289 11.4198 99.6167 11.2432 98.7964 11.2432ZM115.476 17.2417L109.324 7.89355H115.237L118.945 13.9775L122.688 7.89355H128.601L122.38 17.2417L128.892 27H122.961L118.945 20.4546L114.912 27H108.999L115.476 17.2417Z" fill="black"/>
</svg>
