<svg width="166" height="48" viewBox="0 0 166 48" fill="none" xmlns="http://www.w3.org/2000/svg">
<rect x="71" y="5" width="95" height="42" rx="10" fill="#FF0000"/>
<path d="M10.9204 23.3027L16.1328 13.0146H21.8408L13.5522 28.2759V38H8.28857V28.4468L0 13.0146H5.74219L10.9204 23.3027ZM41.9385 28.4126C41.9385 30.0076 41.722 31.4204 41.2891 32.6509C40.8675 33.8813 40.2466 34.9238 39.4263 35.7783C38.6174 36.6214 37.6375 37.2594 36.4868 37.6924C35.3475 38.1253 34.0601 38.3418 32.6245 38.3418C31.2801 38.3418 30.0439 38.1253 28.916 37.6924C27.7995 37.2594 26.8254 36.6214 25.9937 35.7783C25.1733 34.9238 24.5353 33.8813 24.0796 32.6509C23.6353 31.4204 23.4131 30.0076 23.4131 28.4126C23.4131 26.2935 23.7891 24.499 24.541 23.0293C25.293 21.5596 26.3639 20.443 27.7539 19.6797C29.1439 18.9163 30.8016 18.5347 32.7271 18.5347C34.5158 18.5347 36.0994 18.9163 37.478 19.6797C38.868 20.443 39.9561 21.5596 40.7422 23.0293C41.5397 24.499 41.9385 26.2935 41.9385 28.4126ZM28.728 28.4126C28.728 29.6659 28.8647 30.7197 29.1382 31.5742C29.4116 32.4287 29.8389 33.0724 30.4199 33.5054C31.001 33.9383 31.7586 34.1548 32.6929 34.1548C33.6157 34.1548 34.362 33.9383 34.9316 33.5054C35.5127 33.0724 35.9342 32.4287 36.1963 31.5742C36.4697 30.7197 36.6064 29.6659 36.6064 28.4126C36.6064 27.1479 36.4697 26.0998 36.1963 25.2681C35.9342 24.425 35.5127 23.7926 34.9316 23.3711C34.3506 22.9495 33.5929 22.7388 32.6587 22.7388C31.2801 22.7388 30.2775 23.2116 29.6509 24.1572C29.0356 25.1029 28.728 26.5213 28.728 28.4126ZM63.7793 18.8936V38H59.7803L59.0796 35.5562H58.8062C58.396 36.2056 57.8833 36.7354 57.2681 37.1455C56.6528 37.5557 55.9749 37.8576 55.2344 38.0513C54.4938 38.245 53.7248 38.3418 52.9272 38.3418C51.5601 38.3418 50.3695 38.1025 49.3555 37.624C48.3415 37.1341 47.5496 36.3765 46.98 35.3511C46.4217 34.3257 46.1426 32.9927 46.1426 31.3521V18.8936H51.355V30.0532C51.355 31.4204 51.5999 32.4515 52.0898 33.1465C52.5798 33.8415 53.3602 34.189 54.4312 34.189C55.4907 34.189 56.3224 33.9497 56.9263 33.4712C57.5301 32.9813 57.9517 32.2692 58.1909 31.335C58.4416 30.3893 58.5669 29.2386 58.5669 27.8828V18.8936H63.7793Z" fill="black"/>
<path d="M88.3887 38H83.0908V17.4238H76.3062V13.0146H95.1733V17.4238H88.3887V38ZM116.143 18.8936V38H112.144L111.443 35.5562H111.169C110.759 36.2056 110.247 36.7354 109.631 37.1455C109.016 37.5557 108.338 37.8576 107.598 38.0513C106.857 38.245 106.088 38.3418 105.291 38.3418C103.923 38.3418 102.733 38.1025 101.719 37.624C100.705 37.1341 99.9129 36.3765 99.3433 35.3511C98.785 34.3257 98.5059 32.9927 98.5059 31.3521V18.8936H103.718V30.0532C103.718 31.4204 103.963 32.4515 104.453 33.1465C104.943 33.8415 105.723 34.189 106.794 34.189C107.854 34.189 108.686 33.9497 109.29 33.4712C109.893 32.9813 110.315 32.2692 110.554 31.335C110.805 30.3893 110.93 29.2386 110.93 27.8828V18.8936H116.143ZM126.824 11.4082V17.5947C126.824 18.3125 126.801 19.0246 126.755 19.731C126.721 20.4373 126.676 20.9842 126.619 21.3716H126.824C127.325 20.5854 128.009 19.9189 128.875 19.3721C129.74 18.8138 130.863 18.5347 132.241 18.5347C134.383 18.5347 136.121 19.3721 137.454 21.0469C138.787 22.7217 139.453 25.1769 139.453 28.4126C139.453 30.5887 139.146 32.4173 138.53 33.8984C137.915 35.3682 137.055 36.479 135.95 37.231C134.845 37.9715 133.563 38.3418 132.104 38.3418C130.703 38.3418 129.598 38.0911 128.789 37.5898C127.98 37.0885 127.325 36.5246 126.824 35.8979H126.465L125.593 38H121.611V11.4082H126.824ZM130.566 22.7046C129.655 22.7046 128.931 22.8926 128.396 23.2686C127.861 23.6445 127.467 24.2085 127.217 24.9604C126.978 25.7124 126.847 26.6637 126.824 27.8145V28.3784C126.824 30.2355 127.097 31.6597 127.644 32.6509C128.191 33.6307 129.188 34.1206 130.635 34.1206C131.706 34.1206 132.555 33.625 133.181 32.6338C133.819 31.6426 134.138 30.2127 134.138 28.3442C134.138 26.4757 133.819 25.0687 133.181 24.123C132.543 23.1774 131.672 22.7046 130.566 22.7046ZM151.638 18.5347C153.404 18.5347 154.925 18.8765 156.201 19.5601C157.477 20.2323 158.463 21.2121 159.158 22.4995C159.853 23.7869 160.2 25.3592 160.2 27.2163V29.7456H147.878C147.935 31.2153 148.374 32.3717 149.194 33.2148C150.026 34.0465 151.177 34.4624 152.646 34.4624C153.866 34.4624 154.982 34.3371 155.996 34.0864C157.01 33.8358 158.053 33.4598 159.124 32.9585V36.9917C158.178 37.4588 157.187 37.8006 156.15 38.0171C155.125 38.2336 153.877 38.3418 152.407 38.3418C150.493 38.3418 148.796 37.9886 147.314 37.2822C145.845 36.5758 144.688 35.4992 143.845 34.0522C143.014 32.6053 142.598 30.7824 142.598 28.5835C142.598 26.3504 142.974 24.4933 143.726 23.0122C144.489 21.5197 145.549 20.4032 146.904 19.6626C148.26 18.9106 149.838 18.5347 151.638 18.5347ZM151.672 22.2432C150.658 22.2432 149.815 22.5679 149.143 23.2173C148.482 23.8667 148.101 24.8864 147.998 26.2764H155.312C155.301 25.5016 155.159 24.8123 154.885 24.2085C154.623 23.6047 154.224 23.1261 153.689 22.7729C153.165 22.4198 152.493 22.2432 151.672 22.2432Z" fill="white"/>
</svg>
